<svg version="1.1" xmlns="http://www.w3.org/2000/svg" viewBox="0 0 1024 1024" fill="#0088cc">
    <path
        d="M1007.36 119.45c-3.584-10.394-7.834-13.21-14.438-15.77-14.541-5.478-39.168 2.816-39.168 2.816s-871.526 313.242-921.293 347.904c-10.752 7.475-14.336 11.776-16.077 16.896-8.602 24.678 18.227 35.533 18.227 35.533l224.614 73.216s8.346 1.178 11.366-0.768c51.098-32.256 514.048-324.608 540.826-334.336 4.25-1.331 7.322 0.102 6.502 3.072-10.752 37.376-412.826 394.854-412.826 394.854s-1.536 1.894-2.56 4.096l-0.512-0.256-20.992 222.822s-8.704 68.25 59.546 0c48.128-48.128 94.72-88.371 118.067-108.032 77.312 53.248 160.461 112.333 196.301 143.206 18.022 15.514 33.075 18.022 45.568 17.51 33.997-1.178 43.52-38.605 43.52-38.605s158.771-639.181 164.096-724.89c0.512-8.346 1.229-13.67 1.28-19.456 0-7.987-0.768-16.026-2.048-19.814z">
    </path>
</svg>