<svg version="1.1" xmlns="http://www.w3.org/2000/svg" viewBox="0 0 1024 1024" fill="#45668e">
    <path
        d="M669.177 0h-314.355c-286.893 0-354.823 67.93-354.823 354.823v314.355c0 286.893 67.93 354.823 354.823 354.823h314.355c286.893 0 354.823-67.93 354.823-354.823v-314.355c0-286.893-68.652-354.823-354.823-354.823zM826.715 730.603h-74.434c-28.184 0-36.855-22.402-87.441-73.71-44.081-42.637-63.594-48.417-74.434-48.417-15.175 0-19.511 4.336-19.511 25.293v67.208c0 18.066-5.782 28.906-53.477 28.906-78.77 0-166.21-47.695-227.636-136.582-92.501-130.078-117.791-227.636-117.791-247.869 0-10.84 4.336-20.957 25.293-20.957h74.434c18.789 0 26.015 8.671 33.242 28.906 36.855 106.229 98.281 199.452 123.573 199.452 9.395 0 13.731-4.336 13.731-28.184v-109.843c-2.891-50.586-29.628-54.921-29.628-72.988 0-8.671 7.227-17.344 18.789-17.344h117.069c15.898 0 21.68 8.671 21.68 27.462v148.144c0 15.898 7.227 21.68 11.562 21.68 9.395 0 17.344-5.782 34.688-23.124 53.477-59.981 91.776-152.48 91.776-152.48 5.058-10.84 13.731-20.957 32.519-20.957h74.434c22.402 0 27.462 11.562 22.402 27.462-9.395 43.359-100.449 171.99-100.449 171.99-7.949 13.009-10.84 18.789 0 33.242 7.949 10.84 33.964 33.242 51.308 53.477 31.797 36.133 56.368 66.483 62.87 87.441 7.227 20.957-3.613 31.797-24.571 31.797z">
    </path>
</svg>